<svg width="48" height="48" viewBox="0 0 48 48" fill="none" xmlns="http://www.w3.org/2000/svg">
<g id="clarity:clock-solid" clip-path="url(#clip0_494_1000)">
<path id="Vector" d="M24.0003 2.6665C19.781 2.6665 15.6564 3.91768 12.1482 6.26182C8.63992 8.60595 5.90557 11.9378 4.2909 15.8359C2.67624 19.7341 2.25376 24.0235 3.07692 28.1618C3.90007 32.3 5.93187 36.1013 8.91539 39.0848C11.8989 42.0683 15.7001 44.1001 19.8384 44.9233C23.9767 45.7464 28.2661 45.3239 32.1642 43.7093C36.0624 42.0946 39.3942 39.3602 41.7384 35.852C44.0825 32.3438 45.3337 28.2192 45.3337 23.9998C45.3337 18.3419 43.0861 12.9157 39.0853 8.91489C35.0845 4.91412 29.6583 2.6665 24.0003 2.6665ZM32.267 30.9065C32.1701 31.0531 32.0453 31.1791 31.8995 31.2772C31.7538 31.3754 31.5902 31.4437 31.4179 31.4784C31.2457 31.5131 31.0683 31.5134 30.896 31.4794C30.7236 31.4453 30.5597 31.3775 30.4137 31.2798L22.547 25.9465V14.3332C22.547 13.9795 22.6875 13.6404 22.9375 13.3904C23.1876 13.1403 23.5267 12.9998 23.8803 12.9998C24.234 12.9998 24.5731 13.1403 24.8231 13.3904C25.0732 13.6404 25.2137 13.9795 25.2137 14.3332V24.5332L31.8803 29.0532C32.028 29.149 32.1552 29.2731 32.2546 29.4183C32.3541 29.5635 32.4238 29.727 32.4597 29.8993C32.4957 30.0716 32.4971 30.2493 32.4641 30.4222C32.431 30.595 32.364 30.7596 32.267 30.9065ZM31.8003 10.9732C29.9243 9.84239 27.8258 9.13083 25.6489 8.88732C23.472 8.64381 21.2682 8.8741 19.1886 9.5624C17.1091 10.2507 15.2031 11.3807 13.6013 12.8749C11.9996 14.3691 10.74 16.1922 9.90906 18.2189C9.07812 20.2457 8.69545 22.4282 8.78732 24.6168C8.87919 26.8053 9.44342 28.9481 10.4413 30.8981C11.4392 32.8481 12.8471 34.5592 14.5684 35.9139C16.2897 37.2686 18.2838 38.2349 20.4137 38.7465L20.0003 40.8398C17.5576 40.2713 15.2673 39.1794 13.2877 37.6395C11.308 36.0997 9.68606 34.1486 8.53384 31.9209C7.38163 29.6932 6.72657 27.242 6.61389 24.7365C6.50122 22.231 6.93361 19.7309 7.88122 17.4087C8.82883 15.0866 10.2691 12.9978 12.1025 11.2865C13.936 9.57513 16.119 8.28207 18.5009 7.49654C20.8827 6.71102 23.4067 6.45174 25.8985 6.7366C28.3903 7.02146 30.7906 7.84369 32.9337 9.1465L31.8003 10.9732Z" fill="#FFD26C"/>
</g>
<defs>
<clipPath id="clip0_494_1000">
<rect width="48" height="48" fill="white"/>
</clipPath>
</defs>
</svg>
