<svg width="236" height="72" viewBox="0 0 236 72" fill="none" xmlns="http://www.w3.org/2000/svg">
<path d="M21.0974 57.0838C38.4625 35.8976 60.7585 36.161 60.7585 36.161C31.9238 45.7884 35.0811 71.0811 35.0811 71.0811L70.1622 35.9659L35.0811 0.918945L0 36.0342L21.0974 57.0838Z" fill="white"/>
<path d="M83.9192 29.2515H93.6611C94.6153 29.3312 95.5681 29.0828 96.3619 28.5473C96.6601 28.2495 96.8897 27.8902 97.0349 27.4946C97.1801 27.0989 97.2374 26.6764 97.2026 26.2564V22.7569C97.2391 22.3336 97.1827 21.9074 97.0375 21.5081C96.8923 21.1088 96.6617 20.7459 96.3619 20.4449C95.5694 19.9057 94.6165 19.6536 93.6611 19.7303H80.3672V35.3046H83.9192V29.2515ZM83.9192 22.4206H92.0637C92.5134 22.3821 92.9641 22.481 93.3563 22.7043C93.4851 22.8257 93.5843 22.9751 93.6463 23.1409C93.7082 23.3067 93.7313 23.4845 93.7136 23.6607V25.3421C93.7321 25.5183 93.7094 25.6963 93.6474 25.8623C93.5854 26.0282 93.4858 26.1775 93.3563 26.2984C92.9645 26.522 92.5125 26.6175 92.0637 26.5716H83.9192V22.4206Z" fill="white"/>
<path d="M105.064 19.7168H101.417V35.2912H105.064V19.7168Z" fill="white"/>
<path d="M113.202 35.2714H124.657C125.737 35.3999 126.827 35.1228 127.715 34.4938C128.339 33.6593 128.621 32.6181 128.503 31.5828V23.4278C128.617 22.396 128.335 21.3594 127.715 20.5273C126.829 19.8936 125.737 19.616 124.657 19.7496H113.202C112.118 19.6174 111.023 19.8948 110.133 20.5273C109.493 21.3514 109.192 22.3891 109.292 23.4278V31.6353C109.178 32.672 109.463 33.7134 110.091 34.5463C110.984 35.1733 112.076 35.4501 113.16 35.324M112.971 22.482H124.909V32.3394H112.971V22.482Z" fill="white"/>
<path d="M135.99 26.8734C136.009 26.5059 136.009 26.1376 135.99 25.77C135.99 25.3496 135.938 24.8767 135.885 24.4038C136.064 24.6035 136.263 24.8137 136.463 25.0028C136.663 25.192 136.905 25.4337 137.178 25.6754L148.622 35.2912H151.05V19.7168H147.792V27.9033C147.792 28.0925 147.792 28.3762 147.792 28.7335C147.792 29.0908 147.897 29.7529 147.897 30.5936C147.659 30.2941 147.396 30.0163 147.109 29.7634C146.836 29.4902 146.51 29.217 146.131 28.8912L135.202 19.7168H132.732V35.2912H135.99V26.8734Z" fill="white"/>
<path d="M171.374 32.3592H158.879V28.5023H166.077V25.8646H158.879V22.3651H171.206V19.7168H155.253V35.2912H171.374V32.3592Z" fill="white"/>
<path d="M191.678 32.3592H179.214V28.5023H186.402V25.8646H179.214V22.3651H191.531V19.7168H175.578V35.2912H191.678V32.3592Z" fill="white"/>
<path d="M199.433 29.4315H202.859L209.164 35.306H214.356L207.157 29.4315H209.196C210.15 29.5096 211.101 29.2532 211.886 28.7064C212.184 28.4068 212.413 28.0455 212.557 27.6478C212.7 27.2502 212.755 26.8259 212.716 26.4049V22.7583C212.755 22.3357 212.7 21.9098 212.557 21.5104C212.414 21.1111 212.185 20.7479 211.886 20.4463C211.099 19.9031 210.148 19.6505 209.196 19.7317H195.881V35.306H199.433V29.4315ZM199.433 22.422H207.567C208.014 22.3772 208.463 22.4767 208.849 22.7057C208.978 22.8271 209.077 22.9765 209.139 23.1423C209.201 23.3081 209.224 23.4859 209.206 23.6621V25.5642C209.224 25.7403 209.201 25.9181 209.139 26.0839C209.077 26.2497 208.978 26.3991 208.849 26.5205C208.459 26.7376 208.011 26.8293 207.567 26.7832H199.433V22.422Z" fill="white"/>
<path d="M218.588 31.2355V31.6769C218.463 32.716 218.754 33.762 219.397 34.5879C220.293 35.2165 221.389 35.4933 222.476 35.3656H232.102C233.186 35.4937 234.279 35.2167 235.171 34.5879C235.805 33.7579 236.091 32.7141 235.97 31.6769V29.5751C236.033 29.0645 235.995 28.5464 235.858 28.0505C235.721 27.5546 235.488 27.0906 235.171 26.6851C234.283 26.047 233.188 25.7657 232.102 25.897H222.413V22.471H232.617V24.2365L235.77 23.4904V23.1751C235.826 22.6969 235.781 22.2123 235.638 21.7525C235.495 21.2928 235.257 20.8681 234.94 20.5058C234.051 19.9065 232.979 19.6387 231.913 19.7492H223.065C221.979 19.6158 220.883 19.8973 219.996 20.5374C219.369 21.3972 219.104 22.4691 219.26 23.5219V25.2349C219.151 26.2711 219.436 27.3106 220.059 28.1459C220.956 28.7629 222.046 29.0353 223.128 28.913H232.827V32.4756H221.803V30.584L218.588 31.2355Z" fill="white"/>
<path d="M108.1 52.2838L114.079 41.7012H116.454L122.518 52.2838H119.744L118.483 49.9613H111.767L110.538 52.2838H108.1ZM112.818 48.0801H117.505L115.225 43.7715L112.818 48.0801Z" fill="#6D6E70"/>
<path d="M132.898 43.6556H126.067V50.1187H132.898V47.9118L135.452 48.4267V49.6563C135.529 50.3491 135.328 51.0443 134.895 51.5899C134.256 52.0124 133.49 52.1983 132.73 52.1154H126.256C125.517 52.1865 124.776 52.005 124.154 51.6005C123.935 51.3307 123.771 51.0196 123.674 50.6857C123.577 50.3518 123.547 50.0018 123.587 49.6563V44.1706C123.547 43.8274 123.576 43.4798 123.671 43.1478C123.767 42.8159 123.927 42.5062 124.144 42.2369C124.765 41.8292 125.507 41.6474 126.246 41.722H132.74C133.5 41.636 134.266 41.8182 134.905 42.2369C135.121 42.5062 135.282 42.8159 135.378 43.1478C135.473 43.4798 135.502 43.8274 135.462 44.1706V45.1689L132.908 45.5473L132.898 43.6556Z" fill="#6D6E70"/>
<path d="M136.53 52.1366L142.699 41.7012H145.137L151.443 52.1051H148.553L147.249 49.8246H140.366L139.063 52.1051L136.53 52.1366ZM141.448 47.933H146.22L143.75 43.6243L141.448 47.933Z" fill="#6D6E70"/>
<path d="M152.493 52.1517V41.7162H159.492C161.142 41.6087 162.777 42.0807 164.116 43.0508C164.674 43.5316 165.112 44.1368 165.393 44.8178C165.674 45.4987 165.791 46.2362 165.735 46.9707C165.787 47.7138 165.658 48.4586 165.36 49.1412C165.062 49.8238 164.602 50.4241 164.022 50.8906C162.486 51.8782 160.672 52.3393 158.851 52.2042L152.493 52.1517ZM155.047 50.2075H158.315C159.61 50.3299 160.911 50.055 162.046 49.4193C162.421 49.0996 162.713 48.6933 162.896 48.2356C163.079 47.7778 163.148 47.2824 163.097 46.7921C163.132 46.3532 163.071 45.9119 162.916 45.4996C162.762 45.0873 162.519 44.714 162.203 44.4065C161.419 43.8201 160.447 43.5398 159.471 43.6183H155.047V50.2075Z" fill="#6D6E70"/>
<path d="M166.799 52.1051V41.7012H177.959V43.5508H169.363V45.8102H174.365V47.6072H169.363V50.1609H178.075V52.1051H166.799Z" fill="#6D6E70"/>
<path d="M179.126 52.1051V41.7012H181.154L186.251 47.87L191.306 41.7012H193.345V52.1051H191.001V44.9485L186.356 50.8545H185.852L181.154 45.1166V52.1051H179.126Z" fill="#6D6E70"/>
<path d="M200.081 52.1051V47.4286L194.396 41.7012H197.821L201.531 45.579L205.283 41.7012H208.267L202.614 47.3866V52.1051H200.081Z" fill="#6D6E70"/>
</svg>
